<svg xmlns="http://www.w3.org/2000/svg" viewBox="0 0 40 40">
  <defs>
    <linearGradient id="sGrad" x1="0%" y1="0%" x2="100%" y2="100%">
      <stop offset="0%" stopColor="#08f07e" />
      <stop offset="100%" stopColor="#03a055" />
    </linearGradient>
    <filter id="ultraGlow" x="-50%" y="-50%" width="200%" height="200%">
      <feGaussianBlur stdDeviation="2.5" result="blur" />
      <feComposite in="SourceGraphic" in2="blur" operator="over" />
    </filter>
  </defs>
  
  {/* The Bucket Frame */}
  <path d="M6,14 L34,14 L31,34 C31,35.5 30,36.5 28.5,36.5 L11.5,36.5 C10,36.5 9,35.5 9,34 L6,14 Z" fill="rgba(8,240,126,0.05)" stroke="url(#sGrad)" strokeWidth="2" strokeLinejoin="round" filter="url(#ultraGlow)"/>
  
  {/* The Handle */}
  <path d="M12,14 C12,14 12,5 20,5 C28,5 28,14 28,14" fill="none" stroke="url(#sGrad)" strokeWidth="2.5" strokeLinecap="round" filter="url(#ultraGlow)"/>
  <path d="M15,9 C15,9 17,7 20,7 C23,7 25,9 25,9" fill="none" stroke="rgba(255,255,255,0.4)" strokeWidth="1" strokeLinecap="round" />
  
  {/* Modern Geometric "S" */}
  <path d="M22,21 L18,21 C18,21 17,21 17,22 C17,23 17,24 22,24 C27,24 23,29 18,29 L22,29" fill="none" stroke="#fff" strokeWidth="2.8" strokeLinecap="round" strokeLinejoin="round" filter="url(#ultraGlow)"/>
</svg>
